PathFileType	4	(X/Y/Z)	c:/Users/goper/Files/vsCode/490R/osim_files/A04/A04_Slow_05.trc
DataRate	CameraRate	NumFrames	NumMarkers	Units                	OrigDataRate	OrigDataStartFrame	OrigNumFrames
120.00	120.00	8	36	mm	120.0	813	1300
                Frame#	Time	LPSIS			LASIS			LTH1			LTH2			LTH3			LTH4			LLFE			LMFE			LSH1			LSH2			LSH3			LSH4			LLMAL			LMMAL			LCAL			LMTP5			LTOE			LMTP1			RPSIS			RASIS			RTH1			RTH2			RTH3			RTH4			RLFE			RMFE			RSH1			RSH2			RSH3			RSH4			RLMAL			RMMAL			RCAL			RMTP1			RTOE			RMTP5		
		X1	Y1	Z1	X2	Y2	Z2	X3	Y3	Z3	X4	Y4	Z4	X5	Y5	Z5	X6	Y6	Z6	X7	Y7	Z7	X8	Y8	Z8	X9	Y9	Z9	X10	Y10	Z10	X11	Y11	Z11	X12	Y12	Z12	X13	Y13	Z13	X14	Y14	Z14	X15	Y15	Z15	X16	Y16	Z16	X17	Y17	Z17	X18	Y18	Z18	X19	Y19	Z19	X20	Y20	Z20	X21	Y21	Z21	X22	Y22	Z22	X23	Y23	Z23	X24	Y24	Z24	X25	Y25	Z25	X26	Y26	Z26	X27	Y27	Z27	X28	Y28	Z28	X29	Y29	Z29	X30	Y30	Z30	X31	Y31	Z31	X32	Y32	Z32	X33	Y33	Z33	X34	Y34	Z34	X35	Y35	Z35	X36	Y36	Z36

813	6.76667	-565.74512	1058.65137	396.25079	-791.00574	1013.15735	476.24716	-695.13519	695.20880	485.19623	-698.61047	650.86115	481.06607	-757.16431	695.43707	482.38370	-752.57129	651.16565	478.96838	-714.18170	526.26050	464.02817	-738.59650	537.12952	326.67691	-678.05237	425.13959	455.74619	-683.98492	382.33310	450.87189	-739.94141	426.60150	448.21219	-736.14801	383.83609	442.27341	-653.38141	106.99735	381.71585	-680.37970	112.72554	300.20200	-595.79431	66.62807	322.58185	-794.65033	61.66805	423.66513	-845.97870	77.88495	365.92050	-832.32922	62.65572	320.85526	-561.97302	1046.46094	289.98096	-781.97333	1030.12988	191.18719	-818.37158	741.84308	134.20045	-843.13159	707.39307	132.96329	-871.47314	773.84729	132.69965	-891.28290	730.13593	133.52818	-945.57745	599.86499	149.33443	-949.84772	591.09418	271.63965	-830.43054	393.85593	157.76553	-820.11371	347.90598	165.70930	-887.67072	373.53180	152.97189	-867.99603	329.54770	157.92166	-781.75000	156.22537	158.70982	-811.90259	159.24533	292.77289	-704.58624	123.72919	236.55699	-922.26886	69.34718	267.92862	-949.05872	86.09982	222.83897	-908.91370	66.68169	149.88527
814	6.77500	-572.13971	1058.73376	396.25827	-797.55847	1012.86517	476.33591	-699.94604	695.23474	485.18399	-703.19330	650.91772	480.98013	-761.95380	695.11469	482.17242	-757.09882	650.89490	478.73956	-717.69727	526.21252	463.84860	-742.12091	536.90741	326.46701	-680.86053	425.35370	455.63382	-686.42480	382.51428	450.77963	-742.63849	426.36948	448.09360	-738.58362	383.63385	442.08368	-653.49292	107.11379	381.76950	-680.56555	112.70373	300.09070	-595.87335	66.75591	322.63748	-794.66010	61.40711	423.64224	-846.03802	77.84278	365.91040	-832.90155	62.72480	320.74927	-568.34802	1046.66272	289.98840	-788.11200	1030.42188	191.26472	-825.82007	742.82550	134.80072	-850.90063	708.51672	133.51419	-879.20776	775.27948	132.56488	-898.97900	731.59351	133.66640	-955.03418	601.76971	150.70155	-958.73627	592.82928	272.16211	-846.99792	391.36447	158.11787	-838.88721	345.02383	165.73451	-905.35510	373.54257	153.09357	-887.18439	328.48242	157.88025	-808.84222	152.03081	158.16840	-839.07288	155.04797	291.03015	-732.41681	116.30533	236.08728	-952.63513	70.90059	267.62662	-978.70367	88.84796	222.66391	-939.49237	67.90679	149.34599
815	6.78333	-578.70361	1058.78528	396.26511	-804.12482	1012.55560	476.43973	-704.83020	695.18756	485.15826	-707.72333	650.93799	480.92090	-766.85944	694.80237	481.95352	-761.74384	650.58966	478.46884	-720.84650	526.21912	463.54584	-745.51868	536.60248	326.25299	-683.65582	425.50885	455.49194	-688.89514	382.63611	450.68805	-745.45239	426.06644	447.90564	-740.91901	383.33289	441.90854	-653.65094	107.21921	381.80524	-680.77893	112.74381	300.11624	-595.94708	66.93697	322.66589	-794.48810	61.48078	423.64664	-845.86090	77.52433	365.93979	-832.64520	62.45528	320.90897	-574.77716	1046.80115	290.00174	-794.49896	1030.61841	191.17116	-832.88763	743.55585	135.48137	-858.06744	709.30115	134.15556	-886.22577	776.09393	132.39818	-905.96332	732.54224	133.79970	-963.59375	603.40729	151.34126	-967.51685	594.34253	272.68341	-863.57874	388.91174	158.48282	-857.47205	342.30432	165.87883	-922.72760	373.64966	153.19637	-906.15729	327.55649	158.10608	-835.41113	148.26047	158.46309	-865.51672	152.34804	290.93076	-760.56366	109.25193	235.71608	-982.49640	72.89501	267.48233	-1007.88104	92.03526	222.45840	-971.66492	71.89596	149.80798
816	6.79167	-585.21533	1058.83533	396.25873	-810.76245	1012.15851	476.30365	-709.70581	695.21478	485.14154	-712.34113	650.93842	480.93042	-771.68628	694.41022	481.67026	-766.31079	650.23157	478.17572	-724.63702	526.02954	463.39764	-748.97742	536.23590	326.01688	-686.40704	425.64993	455.31778	-691.26105	382.82751	450.54623	-748.20111	425.77255	447.69669	-743.45288	383.09137	441.74399	-653.82947	107.36477	381.79153	-680.93427	112.81174	300.11661	-596.02869	67.13276	322.67966	-794.58618	61.39667	423.59076	-846.02655	77.34555	365.87186	-832.23718	62.11440	320.84409	-581.25641	1046.98645	289.98499	-800.89539	1030.67871	191.26015	-839.62152	743.82056	136.18694	-864.94647	709.69733	134.95279	-892.79150	776.48560	132.39871	-912.70026	733.06354	133.92422	-971.76202	604.69183	152.07535	-976.32251	595.72028	273.04794	-879.94550	386.53894	158.74414	-875.86188	339.37079	165.99548	-939.68719	373.65643	153.54121	-924.72522	326.67703	158.38008	-861.71167	144.80008	158.65808	-892.23779	150.47517	290.99667	-788.66278	102.72253	235.66737	-1012.08777	75.42702	267.15948	-1036.56970	95.86811	222.40167	-1000.45935	72.97767	149.88455
817	6.80000	-591.82184	1058.76099	396.31430	-817.16711	1011.63269	476.18042	-714.51685	695.17511	485.10889	-716.90247	650.85596	480.77191	-776.47858	694.04480	481.40811	-770.80719	649.85474	477.94525	-728.04480	525.91772	463.22641	-752.36835	535.92853	325.80597	-689.03076	425.87839	455.18280	-693.58612	382.92325	450.43475	-750.89038	425.56750	447.56900	-745.72284	382.87845	441.59164	-654.00775	107.50153	381.83911	-681.12103	112.92497	300.10776	-596.09894	67.36088	322.71378	-794.68317	61.33691	423.55908	-846.08582	77.25764	365.84460	-832.44086	62.00361	320.74411	-587.71985	1047.01648	290.00821	-807.26385	1030.72974	191.05547	-846.13794	743.83105	136.97748	-871.37305	709.76947	135.77890	-899.15717	776.57361	132.56778	-919.22260	733.11163	134.25288	-979.54883	605.62054	152.91360	-984.96307	596.91559	273.65155	-896.01245	384.20618	159.18373	-893.71906	336.67935	166.65288	-956.18762	373.79437	153.91838	-943.33826	327.78400	157.23672	-887.92407	141.77771	158.39789	-917.88153	148.45482	290.99866	-817.02393	96.54691	236.03661	-1041.11816	78.59098	267.11346	-1064.94238	100.39005	222.67979	-1029.01660	75.13177	150.00491
818	6.80833	-598.52771	1058.69482	396.43411	-823.81586	1011.24591	476.03760	-719.31305	695.13708	485.10806	-721.40302	650.78107	480.73184	-781.22095	693.58093	481.23383	-775.30640	649.51666	477.72760	-731.36749	525.78583	463.03873	-755.60901	535.58197	325.63361	-691.68414	425.94012	455.05762	-695.93640	383.03543	450.36584	-753.43890	425.18158	447.40793	-748.09467	382.61285	441.45386	-654.19006	107.63473	381.88712	-681.31458	113.01440	300.12552	-596.18658	67.58065	322.71829	-794.76434	61.26770	423.50299	-846.24585	77.07475	365.80310	-832.54260	61.85434	320.72684	-594.31946	1046.70972	290.04944	-813.59021	1030.58777	190.84763	-852.29083	743.50214	137.87302	-877.62616	709.49811	136.70966	-905.12274	776.40009	132.71245	-925.49786	733.29919	134.59981	-986.81525	606.18433	153.83984	-993.30005	597.94196	274.20435	-911.78107	381.87708	159.85374	-911.47772	334.27936	167.18784	-972.32422	373.92465	154.49898	-961.44659	327.46387	157.75171	-914.26898	139.90572	158.25348	-943.54449	147.04726	291.33313	-844.66656	91.06345	236.48656	-1069.62158	82.34442	267.22348	-1092.42407	105.08202	222.87834	-1057.42798	78.48377	150.11890
819	6.81667	-605.24530	1058.62329	396.59512	-830.60352	1010.72729	475.81512	-723.89764	695.18304	485.07330	-725.73535	650.79254	480.72903	-785.89520	693.13007	481.05685	-779.62915	649.07324	477.51520	-734.46326	525.64453	462.90369	-759.18201	535.62756	324.83905	-694.19202	426.07831	454.94632	-698.14716	383.11359	450.25165	-755.88806	424.89737	447.25638	-750.22961	382.38373	441.37778	-654.37408	107.76728	381.91766	-681.51337	113.12537	300.09802	-596.25085	67.83382	322.71796	-794.83319	61.17921	423.48682	-846.32385	76.89162	365.75739	-832.61096	61.68848	320.65515	-601.03766	1047.13550	290.17346	-820.09155	1030.38098	190.66478	-858.25873	742.95038	138.75310	-883.42383	709.07080	137.60333	-911.03766	775.83704	132.93912	-931.57513	732.71313	135.05124	-993.65259	606.37750	154.82570	-1001.13367	598.81604	274.87054	-927.29749	379.50790	160.58447	-928.94763	331.95535	167.97028	-988.11078	374.13199	155.11583	-979.03644	327.21347	158.29909	-939.21777	137.07860	159.29951	-968.76581	146.11340	291.84494	-872.45020	86.12686	236.70450	-1097.50073	86.52674	267.49026	-1119.28442	110.22707	223.17554	-1085.35596	82.42136	150.43385
820	6.82500	-612.04834	1058.44763	396.83459	-837.35559	1010.17926	475.55377	-728.53314	695.11206	485.09689	-730.04382	650.69275	480.67682	-790.45532	692.57709	480.87354	-783.98480	648.65021	477.28372	-737.59290	525.50763	462.76758	-762.14215	535.07764	324.94910	-696.65057	426.17786	454.84909	-700.39636	383.13647	450.14603	-758.37268	424.65121	447.17902	-752.46637	382.06134	441.19025	-654.58844	107.89861	381.92279	-681.71643	113.24104	300.11282	-596.31573	68.06267	322.72147	-794.92542	61.00673	423.34769	-846.48926	76.67567	365.73358	-832.58405	61.42129	320.47534	-607.67340	1047.10229	290.36963	-826.73608	1029.97778	190.37663	-863.93915	742.19562	139.68462	-889.19623	708.25922	138.67345	-916.77368	775.03082	133.17049	-937.24939	731.94104	135.46738	-1000.20056	606.23035	155.83055	-1008.71417	599.41870	275.54895	-942.50562	377.21164	161.44656	-946.13464	329.70468	168.78572	-1003.44678	374.22693	155.89336	-996.29645	327.01453	158.94955	-964.51312	135.44949	159.92532	-993.56616	145.57404	292.48950	-899.58502	81.82926	237.09689	-1124.63940	91.30794	267.88309	-1145.12744	115.76321	223.22420	-1112.24133	86.85499	150.24658
